<svg width="24" height="24" viewBox="0 0 24 24" fill="none" xmlns="http://www.w3.org/2000/svg">
<path fill-rule="evenodd" clip-rule="evenodd" d="M22.8212 20.6091C22.3528 20.6091 21.9824 20.9807 21.9824 21.4466C21.9824 21.9122 22.3528 22.2832 22.8212 22.2832C23.2885 22.2832 23.6598 21.9125 23.6598 21.4466C23.6598 20.981 23.2885 20.6091 22.8212 20.6091ZM22.8212 22.1553C22.4376 22.1553 22.1095 21.8417 22.1095 21.4466C22.1095 21.051 22.4376 20.7388 22.8212 20.7388C23.204 20.7388 23.5307 21.0507 23.5307 21.4466C23.5307 21.8417 23.204 22.1553 22.8212 22.1553Z" fill="#0033A0"/>
<path fill-rule="evenodd" clip-rule="evenodd" d="M23.2311 21.2246C23.2311 21.0275 23.0715 20.9827 22.9049 20.9827H22.5073V21.8983H22.6356V21.4755H22.7912L23.0642 21.8983H23.2188L22.9427 21.4755C23.1057 21.4704 23.2311 21.4055 23.2311 21.2246ZM22.7912 21.3478H22.6356V21.112H22.8797C22.9794 21.112 23.1029 21.1283 23.1029 21.2221C23.1029 21.3682 22.9024 21.3478 22.7912 21.3478Z" fill="#0033A0"/>
<path fill-rule="evenodd" clip-rule="evenodd" d="M17.4489 22.2944C17.6125 21.8509 17.76 21.3765 17.8815 20.8952C18.117 19.9175 18.2391 18.9053 18.2391 17.8738C18.2391 17.2785 18.1979 16.6897 18.1187 16.1101C18.0599 16.9546 17.9126 17.6949 17.9126 17.6949C17.9473 17.806 18.0087 17.9894 18.0372 18.1026V18.1028C17.9459 18.9747 17.7813 19.8217 17.5509 20.6362C17.44 20.2272 17.291 19.8332 17.2812 19.808L17.2809 19.8066C16.9822 20.6029 16.5353 21.5406 16.1299 22.2947H17.4492L17.4489 22.2944Z" fill="#0033A0"/>
<path fill-rule="evenodd" clip-rule="evenodd" d="M14.6834 22.2944H15.4461C17.6172 19.0873 17.7264 16.2451 17.7264 15.7005C17.7264 14.6718 17.5537 13.7265 17.2647 12.9781C17.2647 12.9781 16.8139 11.8147 16.1128 10.7795C16.1892 11.0108 16.3362 11.4798 16.4177 11.8987L16.4311 11.974C16.5695 12.2047 17.1927 13.3037 17.2759 14.5122L17.2762 14.5158C17.2762 14.5158 16.836 13.8987 16.509 13.5089C16.4972 14.1734 16.4113 14.8381 16.2718 15.4801C16.2718 15.4801 16.9245 16.2358 17.2163 16.723C17.2163 16.723 17.018 17.7862 16.5921 18.8048C16.159 18.1748 15.606 17.563 15.606 17.563C15.2823 18.3632 14.8724 19.1682 14.4174 19.9127C14.4174 19.9127 15.2442 20.8801 15.4254 21.1559C15.1826 21.5647 14.9458 21.9209 14.6829 22.2941" fill="#0033A0"/>
<path fill-rule="evenodd" clip-rule="evenodd" d="M11.9666 22.2944C13.4075 20.6828 14.6352 18.7875 15.3727 16.7578C16.0125 14.9969 16.3611 12.8463 15.7944 10.9333C15.7563 10.8071 15.7135 10.6797 15.6639 10.5517C15.4828 10.0838 15.2479 9.67587 14.9922 9.35527C14.3032 8.58528 13.5231 7.89901 12.668 7.31494C12.7937 7.47706 12.9085 7.64394 13.0079 7.81306C13.0079 7.81306 14.0489 8.58528 14.6532 9.36983C13.8779 8.81768 13.4388 8.59396 13.382 8.56568L13.3755 8.56261C13.6701 9.28835 13.7586 9.88978 13.7586 9.89062C13.7586 9.89062 14.6784 10.3705 15.5066 11.0879C15.6214 11.6182 15.6687 12.1614 15.6609 12.7057C14.8262 11.9713 13.8602 11.3976 13.8602 11.3976C13.8423 12.0194 13.7566 12.6494 13.6197 13.2615C13.6197 13.2615 14.5319 13.8391 15.4206 14.6489C15.4206 14.6489 15.1656 15.7963 14.7537 16.6987C13.9005 15.9047 13.0692 15.2867 13.0034 15.2383C13.0034 15.2383 12.5801 16.3426 11.8941 17.4505C12.7481 18.1933 13.5505 18.9633 13.5505 18.9633C13.0605 19.7283 12.5056 20.4565 11.907 21.1375V21.1381L10.3793 19.6168C9.75884 20.3849 9.07816 21.1084 8.35577 21.7745L8.82393 22.2942H11.9655L11.9666 22.2944Z" fill="#0033A0"/>
<path fill-rule="evenodd" clip-rule="evenodd" d="M12.358 7.48705C12.2595 7.35209 12.1475 7.21433 12.0192 7.0917C11.9067 6.98446 11.7972 6.88758 11.6816 6.8005C10.4107 5.84236 8.07158 5.36328 8.07158 5.36328C8.29473 5.48228 8.48037 5.60436 8.48177 5.60492C8.49325 5.60772 9.43599 5.84403 10.2723 6.25339C10.2723 6.25339 9.51131 6.08063 9.02356 6.01315C9.22516 6.19011 9.41696 6.39451 9.58495 6.6073C9.58495 6.6073 11.137 6.89038 11.8185 7.2639C11.8185 7.2639 12.1447 7.59961 12.4112 8.18844C11.3475 7.7564 10.143 7.53157 10.143 7.53157C10.3029 7.88968 10.4177 8.27328 10.4877 8.67283C10.4877 8.67283 11.8118 8.99679 12.8069 9.47474C12.8928 9.94737 12.9247 10.4357 12.9065 10.9302C11.7308 10.3408 10.5641 9.97061 10.5641 9.97061C10.5409 10.4799 10.4585 11.0083 10.3213 11.5476C10.3213 11.5476 11.9263 12.2641 12.647 12.6992C12.4877 13.3362 12.2642 13.9603 11.9954 14.5609C10.8973 13.8474 9.73447 13.2127 9.73447 13.2127C9.44272 13.9141 8.72425 15.0626 8.72425 15.0626H8.72453L8.72508 15.0629C8.743 15.0755 9.93859 15.8962 10.8556 16.6244C10.4 17.3149 9.88623 17.9777 9.32735 18.6082C9.13416 18.4237 7.37214 16.8591 7.37214 16.8591C6.84015 17.4759 6.24796 18.0765 5.59949 18.6516L5.59977 18.6519L7.29879 20.5746L7.29935 20.5749L7.29907 20.5752C6.19728 21.4824 5.09886 22.17 5.09886 22.17L3.68096 20.1574C3.68096 20.1574 2.68361 20.9162 1 21.7131V22.2963H6.52852C12.6996 17.6271 14.8895 10.9506 12.3577 7.48649" fill="#0033A0"/>
<path fill-rule="evenodd" clip-rule="evenodd" d="M9.22852 6.78677C7.69554 4.72376 5.29682 5.0186 4.58143 5.11856C3.79576 5.22859 3.20133 5.40079 3.20133 5.40079C3.37689 5.41703 3.61601 5.44839 3.78848 5.48283C3.91588 5.45287 5.01878 5.20143 5.82041 5.30643L5.82293 5.30671C5.23354 5.37055 4.42995 5.61359 4.34596 5.63935L4.344 5.64018L4.34651 5.64103C4.37535 5.64971 4.60691 5.71999 4.90426 5.89442C4.99134 5.87118 6.08277 5.58139 7.12324 5.56123V5.56151C7.12324 5.56151 7.50795 5.73203 7.87838 5.98626C6.53356 5.98094 5.4203 6.23938 5.39006 6.24638C5.5477 6.38638 5.70422 6.55409 5.84505 6.75653C7.31923 6.53561 8.59125 6.63137 8.59125 6.63137C8.59125 6.63137 8.76428 6.84221 8.84212 6.9556C8.94012 7.09812 9.04064 7.27564 9.11848 7.4316C7.61378 7.25576 6.17489 7.38176 6.17349 7.38176C6.27289 7.63796 6.34008 7.91179 6.37676 8.19991C6.54336 8.19879 7.81762 8.20103 9.44075 8.49362C9.49283 8.86574 9.49788 9.26445 9.457 9.685C9.1812 9.61332 7.84843 9.28041 6.39441 9.13621C6.36529 9.49965 6.29612 9.87764 6.18973 10.2657C6.35268 10.3041 8.14914 10.7325 9.15516 11.1401L9.0944 11.3305C8.9502 11.7626 8.77017 12.1963 8.5571 12.6289C7.74707 12.2299 5.75993 11.4532 5.75993 11.4532C5.56141 11.8975 5.31838 12.3475 5.03446 12.7963C5.03446 12.7963 6.73796 13.7685 7.55863 14.3066C7.17979 14.8476 6.75196 15.3793 6.28045 15.8928C5.68517 15.3591 4.19699 14.2058 4.08472 14.119C3.60452 14.6905 3.00002 15.2916 2.81914 15.4692L4.60523 17.5173L4.554 17.5621C4.1676 17.8824 3.75124 18.184 3.39929 18.4259C3.09381 18.6334 2.84154 18.7941 2.75446 18.8501C2.73374 18.8185 1.56447 16.9515 1.38864 16.6544C1.2604 16.7493 1.13076 16.8406 1.0014 16.9302V20.7686C1.21168 20.6673 1.42223 20.5623 1.63223 20.4508C2.6391 19.955 3.61629 19.3258 4.52571 18.599C5.10866 18.1364 5.7199 17.5932 6.32329 16.9666C7.04064 16.2313 7.66307 15.4605 8.18302 14.6798C10.1531 11.7721 10.6806 8.74058 9.22908 6.78705" fill="#0033A0"/>
<path fill-rule="evenodd" clip-rule="evenodd" d="M5.25314 6.63148C4.52291 5.79373 3.30829 5.50701 1.89683 5.70861L1.78259 5.72569C1.6748 5.74417 1.56588 5.76601 1.45584 5.79037C1.238 5.84077 1.08876 5.89088 1.0014 5.92448V6.34728C1.14028 6.23752 1.28252 6.13336 1.4284 6.03537C1.70979 5.97545 1.98307 5.93708 2.24654 5.91972C1.83887 6.1524 1.36848 6.46796 1.0014 6.75943V7.08479L1.01401 7.09207C1.01401 7.09207 2.04859 6.27308 2.87065 5.92001C3.06889 5.93457 3.25873 5.962 3.43933 6.00372C2.21099 6.5248 1.30408 7.17103 1.24136 7.21639C1.36736 7.29115 1.48244 7.38494 1.49756 7.39726C1.51324 7.38718 2.70434 6.64239 4.01472 6.19608C4.19251 6.27728 4.36416 6.37864 4.51284 6.49316C3.08598 6.89411 1.71427 7.61034 1.71427 7.61034C1.79155 7.70022 1.85959 7.79738 1.91839 7.90154L1.94303 7.89174C3.40321 7.26678 4.95551 6.94619 4.95551 6.94619C5.07675 7.11251 5.17698 7.29815 5.25314 7.50282C5.25314 7.50282 3.86044 7.66214 2.06875 8.23669C2.14771 8.48421 2.16955 8.67012 2.16955 8.67208C2.16955 8.67208 3.85848 8.29437 5.41638 8.25237C5.43822 8.50269 5.4301 8.78352 5.39454 9.07164C4.47195 9.0232 2.27427 9.13996 2.18803 9.14668C2.18803 9.14668 2.18047 9.46335 2.09787 9.76127C2.09787 9.76127 3.70336 9.81251 5.16382 10.0849C5.05098 10.4344 4.90679 10.7793 4.73599 11.1164C3.76273 10.8241 2.28546 10.4691 1.89683 10.3798C1.79435 10.6315 1.66584 10.8815 1.51352 11.1234C1.51352 11.1234 3.31837 11.9111 4.01108 12.2963H4.01248L4.0122 12.2972C3.71148 12.7471 3.11538 13.3771 3.11538 13.3771C2.94262 13.2481 2.7791 13.1271 2.6251 13.014C2.14631 12.6791 1.43624 12.1821 1.00504 11.8814L1.0014 11.8792V13.3715L1.93715 14.4652C1.62916 14.7136 1.315 14.9398 1.0014 15.1433V16.0337L1.03585 16.0113C1.4634 15.7201 1.88591 15.3959 2.29722 15.0381C5.52669 12.2278 6.85024 8.46405 5.25314 6.63204" fill="#0033A0"/>
<path fill-rule="evenodd" clip-rule="evenodd" d="M1.00226 10.9078C1.82713 9.73317 1.94669 8.38499 1.22206 7.72672C1.15402 7.66484 1.08038 7.61192 1.00226 7.56628V10.9078Z" fill="#0033A0"/>
<path fill-rule="evenodd" clip-rule="evenodd" d="M5.50596 4.59388C12.825 4.59388 18.7797 10.5709 18.7797 17.9178C18.7797 19.4076 18.5277 20.8905 18.04 22.2972H21.2983V2H1.0011V5.38543L1.01706 5.37955C2.45792 4.8582 3.96822 4.59388 5.50596 4.59388Z" fill="#0033A0"/>
</svg>
